<?xml version="1.0" encoding="iso-8859-1"?>
<!-- Uploaded to: SVG Repo, www.svgrepo.com, Generator: SVG Repo Mixer Tools -->
<svg fill="#000000" height="20px" width="20px" version="1.1" id="Layer_1" xmlns="http://www.w3.org/2000/svg" xmlns:xlink="http://www.w3.org/1999/xlink" 
	 viewBox="0 0 512 512" xml:space="preserve">
<g>
	<g>
		<path d="M456.462,0H55.538c-8.517,0-15.42,6.905-15.42,15.42v481.16c0,8.515,6.904,15.42,15.42,15.42h400.924
			c8.517,0,15.42-6.905,15.42-15.42V15.42C471.882,6.905,464.979,0,456.462,0z M441.042,481.16H70.958V111.076h213.136
			c8.517,0,15.42-6.905,15.42-15.42s-6.904-15.42-15.42-15.42H70.958V30.84h370.084V481.16z"/>
	</g>
</g>
<g>
	<g>
		<path d="M345.466,92.638c-0.201-0.987-0.493-1.958-0.879-2.884c-0.385-0.925-0.864-1.82-1.419-2.652
			c-0.555-0.848-1.203-1.635-1.912-2.344c-0.709-0.709-1.496-1.359-2.344-1.927c-0.833-0.555-1.727-1.035-2.668-1.42
			c-0.925-0.385-1.897-0.677-2.884-0.877c-1.989-0.401-4.04-0.401-6.014,0c-0.987,0.2-1.958,0.492-2.899,0.877
			c-0.925,0.385-1.82,0.865-2.652,1.42c-0.848,0.569-1.635,1.218-2.344,1.927c-0.709,0.709-1.357,1.496-1.927,2.344
			c-0.555,0.833-1.018,1.727-1.403,2.652c-0.385,0.941-0.694,1.897-0.879,2.884c-0.2,1.002-0.308,2.022-0.308,3.022
			c0,1.002,0.108,2.022,0.308,3.007c0.187,0.987,0.493,1.96,0.879,2.884c0.385,0.925,0.864,1.82,1.419,2.666
			c0.555,0.833,1.203,1.621,1.912,2.345c0.709,0.709,1.496,1.357,2.344,1.912c0.833,0.554,1.727,1.033,2.668,1.419
			c0.925,0.385,1.897,0.677,2.884,0.877c0.987,0.202,2.005,0.308,3.007,0.308c1.002,0,2.02-0.106,3.007-0.308
			c0.987-0.201,1.958-0.492,2.884-0.877c0.941-0.385,1.835-0.865,2.668-1.419c0.848-0.555,1.635-1.203,2.344-1.912
			c0.709-0.725,1.357-1.511,1.912-2.345c0.555-0.848,1.033-1.742,1.419-2.666s0.678-1.897,0.879-2.884
			c0.2-0.987,0.308-2.005,0.308-3.007C345.775,94.66,345.667,93.64,345.466,92.638z"/>
	</g>
</g>
<g>
	<g>
		<path d="M394.473,92.638c-0.201-0.987-0.493-1.943-0.879-2.884c-0.385-0.925-0.864-1.82-1.419-2.652
			c-0.555-0.848-1.203-1.635-1.912-2.344s-1.496-1.359-2.344-1.927c-0.833-0.555-1.727-1.035-2.652-1.42
			c-0.941-0.385-1.912-0.677-2.899-0.877c-1.989-0.401-4.04-0.401-6.014,0c-0.987,0.2-1.958,0.492-2.884,0.877
			c-0.941,0.385-1.835,0.865-2.668,1.42c-0.848,0.569-1.635,1.218-2.344,1.927c-0.709,0.709-1.357,1.496-1.912,2.344
			c-0.555,0.833-1.033,1.727-1.419,2.652c-0.385,0.927-0.694,1.897-0.879,2.884c-0.201,1.002-0.308,2.022-0.308,3.022
			c0,1.002,0.108,2.022,0.308,3.007c0.183,0.987,0.493,1.96,0.879,2.884c0.385,0.925,0.864,1.82,1.419,2.666
			c0.555,0.833,1.203,1.621,1.912,2.345c0.709,0.709,1.496,1.357,2.344,1.912c0.833,0.554,1.727,1.033,2.668,1.419
			c0.925,0.385,1.897,0.677,2.884,0.877c0.987,0.202,2.005,0.308,3.007,0.308s2.02-0.106,3.007-0.308
			c0.987-0.201,1.958-0.492,2.899-0.877c0.925-0.385,1.82-0.865,2.652-1.419c0.848-0.555,1.635-1.203,2.344-1.912
			c0.709-0.725,1.357-1.511,1.912-2.345c0.555-0.848,1.033-1.742,1.419-2.666s0.678-1.897,0.879-2.884
			c0.2-0.987,0.308-2.005,0.308-3.007C394.781,94.66,394.673,93.64,394.473,92.638z"/>
	</g>
</g>
<g>
	<g>
		<path d="M372.98,151.168H139.018c-8.517,0-15.42,6.905-15.42,15.42v240.554c0,8.515,6.904,15.42,15.42,15.42h233.964
			c8.517,0,15.42-6.905,15.42-15.42V166.589C388.401,158.074,381.497,151.168,372.98,151.168z M357.562,391.723h-0.002H154.438
			V182.009h203.124V391.723z"/>
	</g>
</g>
<g>
	<g>
		<path d="M242.224,251.901c0-5.972,5.587-11.559,19.266-11.559c15.798,0,19.459,7.32,26.395,7.32
			c8.478,0,11.944-10.595,11.944-15.796c0-15.028-28.128-16.954-38.339-16.954c-24.082,0-49.32,10.981-49.32,39.88
			c0,45.081,61.073,41.036,61.073,64.347c0,9.247-9.826,12.716-18.688,12.716c-17.917,0-23.698-14.256-32.752-14.256
			c-7.321,0-13.101,9.633-13.101,16.183c0,12.714,21.192,25.044,46.43,25.044c27.935,0,48.163-15.027,48.163-42.769
			C303.295,267.506,242.224,271.167,242.224,251.901z"/>
	</g>
</g>
</svg>